<?xml version="1.0" encoding="utf-8"?>
<!-- Generator: Adobe Illustrator 18.1.1, SVG Export Plug-In . SVG Version: 6.00 Build 0)  -->
<svg version="1.1" xmlns="http://www.w3.org/2000/svg" xmlns:xlink="http://www.w3.org/1999/xlink" x="0px" y="0px"
	 viewBox="0 0 566.93 226.77" enable-background="new 0 0 566.93 226.77" xml:space="preserve">
<g id="图层_1">
</g>
<g id="隔离模式">
	<g>
		<g>
			<g>
				<g enable-background="new    ">
					<defs>
						<polygon id="SVGID_1_" enable-background="new    " points="-0.814,223.997 8.539,173.812 565.742,173.812 556.389,223.997 
													"/>
					</defs>
					<clipPath id="SVGID_2_">
						<use xlink:href="#SVGID_1_"  overflow="visible"/>
					</clipPath>
					<g clip-path="url(#SVGID_2_)">
						<g>
							<g>
								<g>
									<path fill="#FFFFFF" d="M57.501,209.6c-2.16,0-2.96-1.481-2.289-5.084c1.262-6.771,4.249-12.274,7.972-12.274
										c2.153,0,2.953,1.481,2.283,5.076C64.203,204.096,61.224,209.6,57.501,209.6 M64.231,187.687
										c-8.427,0-17.68,5.504-19.396,14.714c-1.302,6.985,3.686,11.752,11.618,11.752c8.427,0,17.68-5.504,19.396-14.714
										C77.153,192.446,72.164,187.687,64.231,187.687"/>
									<path fill="#FFFFFF" d="M90.809,209.6c-2.16,0-2.96-1.481-2.289-5.084c1.262-6.771,4.249-12.274,7.972-12.274
										c2.153,0,2.953,1.481,2.283,5.076C97.512,204.096,94.532,209.6,90.809,209.6 M97.54,187.687
										c-8.427,0-17.68,5.504-19.396,14.714c-1.302,6.985,3.686,11.752,11.618,11.752c8.427,0,17.68-5.504,19.396-14.714
										C110.461,192.446,105.472,187.687,97.54,187.687"/>
									<path fill="#FFFFFF" d="M124.044,208.65c-1.224,0-2.195-1.592-1.721-4.134c1.005-5.393,4.831-12.274,7.721-12.274
										c1.519,0,2.322,0.95,1.749,4.023C130.788,201.656,126.934,208.65,124.044,208.65 M147.816,174.138
										c-4.844,0-11.939,1.797-12.333,3.912c-0.396,2.123,2.065,1.541,1.661,3.706c-0.483,2.594-2.126,6.146-3.113,8.791
										c-1.268-1.857-2.895-2.859-5.291-2.859c-7.888,0-15.627,8.414-17.146,16.563c-1.027,5.512,1.929,9.903,7.068,9.903
										c4.799,0,9.204-3.655,11.672-8.474l0.075,0.111c-0.342,1.318-0.682,2.594-0.919,3.86c-0.603,3.235,0.046,4.502,1.468,4.502
										c2.204,0,10.949-3.287,11.244-4.87c0.474-2.542-3.46-0.899-2.927-3.758c0.286-1.532,0.961-3.338,1.61-5.238l6.334-18.48
										c1.076-3.124,1.976-5.341,2.134-6.189C149.521,174.72,148.995,174.138,147.816,174.138"/>
									<path fill="#FFFFFF" d="M188.345,187.687c-4.158,0-7.075,4.34-9.296,7.832l-0.077-0.103
										c0.481-1.275,1.289-3.236,1.534-4.554c0.415-2.225-0.094-3.176-1.17-3.176c-1.762,0-11.522,2.962-11.986,5.452
										c-0.394,2.114,2.546,1.053,2.052,3.706c-0.621,3.33-5.007,13.182-5.47,15.664c-0.129,0.693,0.306,1.01,1.183,1.01h6.569
										c1.371,0,1.938-0.428,2.654-2.174c4.745-11.538,5.835-16.041,7.84-16.041c1.224,0,0.106,3.39,3.04,3.39
										c1.865,0,4.862-2.431,5.76-7.25C191.382,189.271,190.21,187.687,188.345,187.687"/>
									<path fill="#FFFFFF" d="M203.805,188.321c-2.249,0-12.07,2.225-12.622,5.187c-0.335,1.798,2.355,1.01,1.952,3.176
										c-0.158,0.847-4.957,12.437-5.412,14.876c-0.365,1.96,0.394,2.594,1.817,2.594c1.814,0,11.964-2.962,12.28-4.656
										c0.483-2.594-2.245-1.643-1.851-3.758c0.266-1.429,5.124-13.293,5.459-15.09
										C205.654,189.433,205.228,188.321,203.805,188.321 M204.937,175.404c-3.716,0-6.979,2.756-7.59,6.034
										c-0.375,2.011,0.897,4.126,4.524,4.126c3.723,0,6.978-2.748,7.59-6.034C209.836,177.519,208.564,175.404,204.937,175.404"
										/>
									<path fill="#FFFFFF" d="M219.56,208.65c-1.224,0-2.203-1.592-1.729-4.134c1.005-5.393,4.838-12.274,7.728-12.274
										c1.519,0,2.322,0.95,1.749,4.023C226.305,201.656,222.45,208.65,219.56,208.65 M243.332,174.138
										c-4.851,0-11.939,1.797-12.333,3.912c-0.396,2.123,2.057,1.541,1.654,3.706c-0.483,2.594-2.126,6.146-3.105,8.791
										c-1.268-1.857-2.895-2.859-5.299-2.859c-7.881,0-15.62,8.414-17.138,16.563c-1.027,5.512,1.922,9.903,7.068,9.903
										c4.799,0,9.204-3.655,11.672-8.474l0.075,0.111c-0.341,1.318-0.682,2.594-0.918,3.86c-0.603,3.235,0.046,4.502,1.468,4.502
										c2.204,0,10.941-3.287,11.236-4.87c0.474-2.542-3.452-0.899-2.92-3.758c0.286-1.532,0.961-3.338,1.61-5.238l6.334-18.48
										c1.076-3.124,1.976-5.341,2.134-6.189C245.037,174.72,244.512,174.138,243.332,174.138"/>
									<path fill="#FFFFFF" d="M253.889,200.287c0.996-2.97,3.983-8.474,7.359-8.474c1.275,0,2.079,0.95,1.812,2.38
										C262.309,198.224,256.945,199.91,253.889,200.287 M263.094,187.687c-9.503,0-18.956,7.087-20.516,15.458
										c-1.342,7.199,3.633,11.008,10.541,11.008c7.785,0,14.984-4.451,15.447-6.933c0.168-0.899-0.508-1.746-1.341-1.746
										c-1.615,0-5.837,3.706-9.847,3.706c-3.089,0-4.753-1.592-4.217-4.982c4.251-0.736,17.594-2.431,19.053-10.263
										C272.826,190.649,269.073,187.687,263.094,187.687"/>
									<path fill="#FFFFFF" d="M278.099,205.474c-3.62,0-7.034,2.534-7.566,5.392c-0.337,1.806,0.855,3.287,3.155,3.287
										c0.442,0,0.976-0.214,1.168-0.214c0.103,0,0.178,0.111,0.15,0.265c-0.306,1.643-5.431,4.973-5.648,6.137
										c-0.139,0.745,0.553,1.224,1.143,1.224c1.762,0,10.877-5.829,11.962-11.65C282.964,207.22,280.989,205.474,278.099,205.474
										"/>
									<path fill="#FFFFFF" d="M320.189,174.138c-13.322,0-25.405,9.099-28.001,23.025c-2.16,11.59,5.408,16.991,15.198,16.991
										c7.697,0,19.162-4.237,19.832-7.832c0.198-1.061,0.338-2.328,0.526-3.338c0.849-4.554,3.199-7.199,3.506-8.842
										c0.196-1.053-0.505-1.481-2.761-1.481h-13.521c-1.467,0-3.172,1.275-3.438,2.705c-0.266,1.429,0.514,1.952,1.789,1.952
										h2.448c1.423,0,2.157,0.531,1.851,2.174c-1.094,5.872-4.25,9.159-7.929,9.159c-4.556,0-6.267-4.982-5.074-11.384
										c1.943-10.425,9.709-18.471,16.27-18.471c8.817,0,4.319,9.424,8.528,9.424c1.961,0,3.614-2.542,4.562-7.627
										C334.606,177.202,326.655,174.138,320.189,174.138"/>
									<path fill="#FFFFFF" d="M345.023,209.6c-2.153,0-2.953-1.481-2.282-5.084c1.262-6.771,4.241-12.274,7.964-12.274
										c2.16,0,2.961,1.481,2.291,5.076C351.733,204.096,348.746,209.6,345.023,209.6 M351.754,187.687
										c-8.427,0-17.68,5.504-19.396,14.714c-1.302,6.985,3.686,11.752,11.618,11.752c8.427,0,17.68-5.504,19.396-14.714
										C364.675,192.446,359.686,187.687,351.754,187.687"/>
									<path fill="#FFFFFF" d="M378.332,209.6c-2.153,0-2.953-1.481-2.282-5.084c1.262-6.771,4.241-12.274,7.964-12.274
										c2.16,0,2.96,1.481,2.29,5.076C385.041,204.096,382.055,209.6,378.332,209.6 M385.062,187.687
										c-8.427,0-17.68,5.504-19.396,14.714c-1.302,6.985,3.686,11.752,11.618,11.752c8.427,0,17.68-5.504,19.396-14.714
										C397.983,192.446,392.995,187.687,385.062,187.687"/>
									<path fill="#FFFFFF" d="M411.574,208.65c-1.224,0-2.203-1.592-1.729-4.134c1.005-5.393,4.831-12.274,7.721-12.274
										c1.519,0,2.322,0.95,1.749,4.023C418.31,201.656,414.464,208.65,411.574,208.65 M435.345,174.138
										c-4.851,0-11.946,1.798-12.34,3.912c-0.396,2.123,2.065,1.541,1.661,3.706c-0.483,2.594-2.126,6.146-3.105,8.791
										c-1.276-1.857-2.895-2.859-5.299-2.859c-7.888,0-15.627,8.414-17.146,16.563c-1.027,5.512,1.929,9.903,7.068,9.903
										c4.807,0,9.204-3.655,11.672-8.474l0.075,0.111c-0.342,1.318-0.675,2.594-0.911,3.86c-0.603,3.235,0.038,4.502,1.461,4.502
										c2.204,0,10.949-3.287,11.244-4.87c0.474-2.542-3.46-0.899-2.927-3.758c0.286-1.532,0.969-3.338,1.618-5.238l6.334-18.48
										c1.069-3.124,1.969-5.341,2.126-6.189C437.043,174.72,436.518,174.138,435.345,174.138"/>
									<path fill="#FFFFFF" d="M472.421,174.138c-2.249,0-12.069,2.217-12.622,5.187c-0.335,1.798,2.364,1.001,1.959,3.176
										c-5.256,15.031-10.055,26.62-10.51,29.06c-0.365,1.96,0.394,2.594,1.817,2.594c1.814,0,13.12-3.39,13.514-5.504
										c0.415-2.225-3.508-0.642-2.857-4.134c0.217-1.164,9.987-26.252,10.322-28.05
										C474.271,175.25,473.844,174.138,472.421,174.138"/>
									<path fill="#FFFFFF" d="M486.432,188.321c-2.249,0-12.07,2.225-12.622,5.187c-0.335,1.797,2.363,1.01,1.959,3.176
										c-0.158,0.847-4.965,12.437-5.419,14.876c-0.365,1.96,0.394,2.594,1.817,2.594c1.814,0,11.964-2.962,12.28-4.656
										c0.483-2.594-2.237-1.643-1.843-3.758c0.266-1.429,5.117-13.293,5.452-15.09
										C488.281,189.433,487.855,188.321,486.432,188.321 M487.571,175.404c-3.723,0-6.979,2.756-7.59,6.034
										c-0.375,2.011,0.89,4.126,4.517,4.126c3.723,0,6.978-2.748,7.59-6.034C492.463,177.519,491.191,175.404,487.571,175.404"/>
									<path fill="#FFFFFF" d="M512.932,174.138c-8.228,0-12.769,5.975-15.626,14.183h-2.153c-1.18,0-2.311,0.847-2.695,2.91
										c-0.266,1.429,0.397,2.063,1.96,2.063h1.371c-4.444,13.875-7.026,26.149-10.403,26.149c-1.762,0,0.073-3.278-3.407-3.278
										c-1.718,0-3.613,1.267-4.077,3.758c-0.405,2.174,1.298,4.074,5.411,4.074c9.599,0,15.975-9.527,22.664-30.703h2.75
										c1.659,0,3.015-0.95,3.371-2.859c0.295-1.583-0.682-2.114-1.958-2.114h-2.647c1.695-7.515,2.793-9.21,3.921-9.21
										c1.519,0,1.093,3.073,3.983,3.073c1.814,0,3.685-1.378,4.06-3.39C519.952,176.149,517.098,174.138,512.932,174.138"/>
									<path fill="#FFFFFF" d="M522.804,200.287c0.996-2.97,3.975-8.474,7.359-8.474c1.268,0,2.072,0.95,1.805,2.38
										C531.217,198.224,525.86,199.91,522.804,200.287 M532.008,187.687c-9.503,0-18.956,7.087-20.516,15.458
										c-1.342,7.199,3.633,11.008,10.541,11.008c7.785,0,14.984-4.451,15.447-6.933c0.167-0.899-0.508-1.746-1.341-1.746
										c-1.615,0-5.837,3.706-9.855,3.706c-3.082,0-4.746-1.592-4.21-4.982c4.251-0.736,17.594-2.431,19.053-10.263
										C541.741,190.649,537.98,187.687,532.008,187.687"/>
									<path fill="#FFFFFF" d="M549.78,204.832c-2.89,0-7.433,2.542-8.065,5.932c-0.415,2.225,1.086,3.39,3.578,3.39
										c2.89,0,7.433-2.542,8.065-5.932C553.771,206.005,552.272,204.832,549.78,204.832 M557.83,174.771
										c-4.313,0-6.178,1.584-6.89,5.401c-0.908,4.87-1.323,8.679-3.182,20.004c-0.39,2.328-0.329,3.073,1.727,3.073
										c1.858,0,3.006-0.899,3.85-2.542c9.095-17.787,11.183-20.329,11.686-23.025
										C565.445,175.404,564.391,174.771,557.83,174.771"/>
									<path fill="#FFFFFF" d="M32.241,173.812c-13.322,0-25.398,9.099-27.993,23.025c-2.16,11.59,5.408,16.991,15.198,16.991
										c7.689,0,19.162-4.237,19.832-7.832c0.198-1.061,0.331-2.328,0.519-3.338c0.849-4.554,3.207-7.199,3.513-8.842
										c0.196-1.053-0.505-1.481-2.761-1.481H27.027c-1.467,0-3.172,1.275-3.438,2.705c-0.266,1.429,0.514,1.952,1.789,1.952
										h2.448c1.423,0,2.157,0.531,1.851,2.174c-1.096,5.88-4.258,9.159-7.929,9.159c-4.556,0-6.276-4.973-5.081-11.384
										c1.943-10.425,9.716-18.471,16.278-18.471c8.817,0,4.319,9.424,8.528,9.424c1.961,0,3.607-2.542,4.555-7.627
										C46.658,176.877,38.706,173.812,32.241,173.812"/>
								</g>
							</g>
						</g>
					</g>
				</g>
			</g>
		</g>
		<g>
			<path fill="#FFFFFF" d="M70.215,85.723c-8.938,12.124-17.389,23.785-26.071,35.27c-3.467,4.587-7.35,8.874-11.212,13.146
				c-5.204,5.756-11.789,8.517-19.558,8.174c-6.375-0.282-9.899-3.115-10.31-9.426c-0.567-8.712-1.389-17.604-0.295-26.188
				c2.783-21.835,6.552-43.545,9.978-65.297c0.382-2.427,0.218-4.405-1.638-6.367c-3.2-3.383-2.101-8.538,2.242-10.408
				c2.285-0.984,4.9-1.62,7.378-1.662c9.531-0.159,19.067-0.051,28.6,0.047c1.868,0.019,3.772,0.269,5.589,0.705
				c4.55,1.09,5.923,5.841,2.552,9.105c-1.481,1.434-3.31,2.724-5.22,3.46c-5.889,2.27-7.934,6.962-8.618,12.666
				c-1.82,15.175-3.634,30.352-5.455,45.527c-0.486,4.05-0.99,8.098-1.515,12.392c0.622-0.225,1.009-0.241,1.171-0.44
				c13.036-16.01,25.299-32.551,34.178-51.314c2.028-4.285,3.491-8.842,5.129-13.304c0.816-2.222,0.606-4.128-1.348-5.98
				c-4.005-3.797-3.182-8.991,1.856-11.299c2.24-1.026,4.9-1.515,7.383-1.563c9.531-0.184,19.068-0.106,28.602-0.082
				c1.209,0.003,2.436,0.172,3.623,0.416c2.243,0.46,4.383,1.24,4.791,3.878c0.456,2.956-0.146,6.075-3.082,7.057
				c-7.72,2.581-10.483,8.444-11.899,15.701c-3.743,19.184-5.828,38.487-4.945,59.072c1.815-2.088,3.131-3.456,4.284-4.95
				c14.161-18.361,27.08-37.536,37.903-58.076c0.514-0.976,0.852-2.042,1.329-3.039c1.408-2.943,1.009-5.152-2.118-6.833
				c-2.4-1.29-3.706-3.616-3.299-6.398c0.409-2.798,1.989-4.911,4.817-5.815c1.154-0.369,2.35-0.849,3.529-0.855
				c8.309-0.045,16.625-0.14,24.923,0.18c1.748,0.067,4.7,1.6,4.873,2.783c0.322,2.203-0.237,5.87-1.74,6.794
				c-12.094,7.432-17.158,20.34-24.807,31.149c-13.624,19.252-26.642,38.933-40.173,58.254c-3.477,4.964-7.821,9.342-11.94,13.83
				c-6.465,7.043-14.642,7.635-23.284,5.559c-3.014-0.724-4.931-3.105-5.513-6.105c-0.694-3.574-1.352-7.233-1.338-10.852
				c0.047-11.745,0.411-23.488,0.647-35.232C70.233,88.341,70.215,87.282,70.215,85.723z"/>
			<path fill="#FFFFFF" d="M279.723,68.84c4.78-2.096,9.259-4.517,14.023-6.06c11.882-3.847,23.056-0.798,29.781,7.849
				c5.605,7.208,6.058,15.526,4.445,24.052c-2.771,14.647-11.757,25.304-22.927,34.336c-10.308,8.335-21.904,13.728-35.435,14.095
				c-9.857,0.267-14.623-1.433-22.291-7.997c-2.858,1.694-5.708,3.56-8.722,5.111c-2.145,1.104-4.448,2.038-6.788,2.6
				c-6.059,1.456-9.961-2.653-7.907-8.594c2.457-7.104,5.398-14.041,8.189-21.027c9.277-23.218,18.577-46.428,27.88-69.636
				c0.77-1.92,1.309-3.503-0.837-5.198c-3.671-2.9-3.614-6.422,0.015-9.445c1.585-1.321,3.48-2.547,5.436-3.096
				c7.762-2.179,15.599-4.094,23.423-6.047c0.944-0.236,1.989-0.218,2.971-0.129c5.837,0.531,7.527,3.345,5.283,8.803
				c-5.134,12.486-10.295,24.961-15.437,37.444C280.423,66.878,280.082,67.879,279.723,68.84z M260.452,119.224
				c0.041,8.232,3.984,11.107,10.813,8.427c2.936-1.152,5.921-2.698,8.257-4.771c8.954-7.946,14.399-18.117,17.397-29.593
				c0.627-2.401,0.728-5.08,0.425-7.551c-0.53-4.325-3.243-6.31-7.604-6.113c-5.318,0.24-9.492,2.861-12.963,6.627
				c-7.824,8.489-12.36,18.771-15.753,29.63C260.602,117.232,260.538,118.697,260.452,119.224z"/>
			<path fill="#FFFFFF" d="M413.683,101.522c-1.435,1.904-3.292,3.622-4.229,5.746c-3.528,8.002-6.872,16.091-10.056,24.237
				c-2.159,5.524-5.518,8.904-11.866,8.587c-4.088-0.204-8.203,0.117-12.291-0.097c-5.46-0.286-6.806-2.475-4.739-7.677
				c4.251-10.7,8.636-21.347,12.956-32.02c7.475-18.468,14.961-36.933,22.397-55.417c1.24-3.082,2.567-6.088-1.62-8.474
				c-1.853-1.055-1.948-3.704-0.158-5.226c2.409-2.048,4.973-4.285,7.871-5.312c7.386-2.617,14.932-4.867,22.551-6.689
				c2.245-0.537,5.509,0.126,7.305,1.524c2.46,1.915,1.271,5.012,0.147,7.674c-7.919,18.759-15.794,37.536-23.309,56.727
				c2.925-2.162,5.804-4.388,8.782-6.473c10.196-7.137,20.644-13.875,32.924-16.859c3.365-0.817,7.058-1.153,10.472-0.713
				c6.808,0.877,9.433,6.504,6.619,12.858c-4.822,10.886-17.139,12.857-24.302,6.952c-1.084-0.893-3.671-0.943-5.072-0.304
				c-6.569,2.994-6.617,3.322-5.853,10.437c0.899,8.374,1.799,16.749,2.708,25.122c0.607,5.584,2.082,6.979,7.564,6.991
				c2.762,0.006,5.44,0.057,6.521,3.286c1.115,3.329-0.514,5.717-3.084,7.345c-8.686,5.501-18.179,8.656-28.514,8.677
				c-4.152,0.008-6.521-3.036-8.219-6.404c-3.202-6.353-4.281-13.23-4.447-20.261c-0.107-4.525-0.02-9.055-0.02-13.583
				C414.375,101.958,414.029,101.74,413.683,101.522z"/>
			<path fill="#FFFFFF" d="M167.569,113.202c-1.413,8.234,2.763,13.452,11.017,13.914c10.197,0.571,18.979-3.455,27.528-8.369
				c2.159-1.241,4.526-2.526,6.926-2.857c4.834-0.667,7.53,3.329,5.361,7.698c-0.813,1.637-2.025,3.296-3.481,4.36
				c-17.907,13.086-37.823,18.462-59.54,13.12c-16.252-3.998-22.287-15.543-18.373-31.932c2.77-11.595,9.489-20.678,18.592-27.972
				c15.944-12.776,33.883-20.1,54.681-17.791c4.924,0.547,9.904,2.381,14.401,4.565c6.321,3.07,8.483,9.245,6.63,16.033
				c-1.805,6.614-6.281,11.07-11.859,14.58c-10.6,6.671-22.526,9.577-34.62,11.895C179.096,111.546,173.294,112.3,167.569,113.202z
				 M174.261,98.786c10.96-1.686,20.981-3.508,29.065-10.605c1.36-1.195,2.442-2.881,3.207-4.545
				c1.909-4.153,0.037-7.141-4.483-7.094c-2.158,0.022-4.484,0.294-6.434,1.143C186.096,81.828,179.977,89.499,174.261,98.786z"/>
			<path fill="#FFFFFF" d="M500.327,112.363c-1.338,8.373,2.642,13.396,11.05,14.016c8.124,0.599,15.492-2.04,22.574-5.657
				c2.363-1.207,4.617-2.626,6.933-3.926c0.865-0.486,1.72-1.085,2.658-1.329c2.647-0.686,5.448-1.02,7.348,1.422
				c1.891,2.429,1.539,5.5-0.547,7.299c-4.223,3.641-8.588,7.424-13.527,9.869c-14.631,7.243-30.139,10.193-46.421,7.043
				c-14.718-2.847-22.724-12.839-21.516-26.461c0.712-8.031,3.391-15.321,8.051-21.855c9.555-13.399,22.668-21.879,38.071-27.019
				c11.33-3.781,22.871-5.213,34.606-1.923c2.432,0.682,4.85,1.595,7.086,2.763c7.635,3.991,9.828,10.739,6.5,19.152
				c-2.674,6.759-8.217,10.869-14.415,14.096c-12.651,6.588-26.405,9.33-40.361,11.31
				C505.693,111.548,502.975,111.969,500.327,112.363z M502.587,98.091c3.7-0.633,6.539-0.947,9.288-1.622
				c7.448-1.83,14.836-3.907,20.462-9.596c3.03-3.064,4.063-6.767,2.738-8.895c-1.393-2.236-5.011-3.11-9.152-1.706
				C515.197,79.907,508.778,88.2,502.587,98.091z"/>
			<path fill="#FFFFFF" d="M348.034,112.445c-2.326,0-4.653,0.056-6.976-0.012c-4.826-0.14-6.34-2.316-4.72-6.902
				c3.426-9.698,6.937-19.365,10.381-29.057c4.667-13.132,9.326-26.267,13.939-39.418c1.067-3.042,2.192-5.979-1.799-8.245
				c-2.127-1.208-1.831-4.515,0.84-6.15c4.387-2.686,9.057-5.061,13.873-6.852c4.846-1.803,9.962-3.063,15.068-3.901
				c2.347-0.385,5.433,0.12,7.324,1.448c2.504,1.757,1.262,4.679,0.318,7.298c-6.558,18.206-12.819,36.521-19.549,54.663
				c-3.92,10.567-8.433,20.919-12.88,31.282c-1.585,3.693-4.525,5.934-8.842,5.828c-2.324-0.057-4.651-0.01-6.977-0.01
				C348.034,112.427,348.034,112.436,348.034,112.445z"/>
			<path fill="#FFFFFF" d="M344.73,118.51c6.298-0.014,10.443,2.623,10.93,7.368c0.193,1.881-0.217,4.005-0.95,5.77
				c-3.536,8.524-13.401,13.144-22.238,10.613c-5.982-1.714-8.207-6.228-5.955-12.086
				C329.103,123.444,336.781,118.527,344.73,118.51z"/>
			<path fill="none" d="M260.452,119.224c0.086-0.527,0.15-1.992,0.572-3.345c3.393-10.859,7.929-21.141,15.753-29.63
				c3.471-3.766,7.645-6.387,12.963-6.627c4.36-0.197,7.074,1.788,7.604,6.113c0.303,2.472,0.202,5.151-0.425,7.551
				c-2.998,11.477-8.443,21.648-17.397,29.593c-2.336,2.073-5.321,3.619-8.257,4.771
				C264.436,130.331,260.493,127.456,260.452,119.224z"/>
			<path fill="none" d="M174.261,98.786c5.716-9.286,11.835-16.957,21.355-21.102c1.95-0.849,4.276-1.12,6.434-1.143
				c4.519-0.047,6.392,2.941,4.483,7.094c-0.765,1.664-1.846,3.351-3.207,4.545C195.242,95.278,185.221,97.1,174.261,98.786z"/>
			<path fill="none" d="M502.587,98.091c6.191-9.891,12.61-18.184,23.335-21.82c4.141-1.404,7.759-0.529,9.152,1.706
				c1.326,2.128,0.292,5.831-2.738,8.895c-5.626,5.69-13.014,7.766-20.462,9.596C509.126,97.144,506.288,97.458,502.587,98.091z"/>
		</g>
	</g>
</g>
</svg>
